<?xml version="1.0" ?><svg data-name="Layer 2" id="Layer_2" viewBox="0 0 272 272" xmlns="http://www.w3.org/2000/svg"><defs><style>.cls-1{fill:#ffffff;}</style></defs><title/><path class="cls-1" d="M231.23,202.47,218.7,125.28c-4.86-29.91-22-54.35-45-67.28q-2.1-1.19-4.28-2.24L171.67,50,188,8H84l16.55,42,2.23,5.66q-2.28,1.1-4.49,2.34A83.56,83.56,0,0,0,82.14,69.86c-14.68,13.72-25.2,33-28.84,55.42L40.77,202.47C35.56,234.51,57.55,264,86.63,264h98.74C214.45,264,236.44,234.51,231.23,202.47ZM95.75,16h80.56L163.08,50H109.14ZM213,242.65c-7.32,8.61-17.14,13.35-27.64,13.35H86.63c-10.5,0-20.32-4.74-27.64-13.35-8.88-10.44-12.65-24.62-10.33-38.9L61.2,126.56c4.7-29,21.86-52.3,44.51-63.45A71.05,71.05,0,0,1,113.08,60a68.46,68.46,0,0,1,6.59-2h32.65a67.42,67.42,0,0,1,6.84,2.08,71.11,71.11,0,0,1,7.36,3.15c22.54,11.19,39.59,34.47,44.28,63.33l12.54,77.19C225.66,218,221.89,232.21,213,242.65Z"/><path class="cls-1" d="M178,54a4,4,0,0,1-4,4H98a4,4,0,1,1,0-8h76A4,4,0,0,1,178,54Z"/></svg>